# xmcd
#
# Track frame offsets:
#	150
#	13650
#	30592
#	50912
#	68607
#	81527
#	98915
#	119375
#	130127
#	140677
#	152547
#	165682
#
# Disc length: 2540 seconds
#
# Revision: 3
# Processed by: cddbd v1.5.1PL2 Copyright (c) Steve Scherf et al.
# Submitted via: dBpowerAMP V4.0
#
DISCID=a209ea0c
DTITLE=Eriksen - The Water Is Wide
DYEAR=1994
DGENRE=Folklore
TTITLE0=Forgive And Forget
TTITLE1=Poncho's Lament
TTITLE2=Read Me My Rights
TTITLE3=Bound By Love
TTITLE4=What Goes Up Must Come Down
TTITLE5=Who's Fooling Who
TTITLE6=Tallahassee River
TTITLE7=Big City Blues
TTITLE8=Charlie Stone
TTITLE9=Blue Moon Of Kentucky
TTITLE10=Crows Mate Forever
TTITLE11=The Water Is Wide
EXTD=
EXTT0=
EXTT1=
EXTT2=
EXTT3=
EXTT4=
EXTT5=
EXTT6=
EXTT7=
EXTT8=
EXTT9=
EXTT10=
EXTT11=
PLAYORDER=
